<svg width="14" height="13" viewBox="0 0 14 13" fill="none" xmlns="http://www.w3.org/2000/svg">
<path d="M13.1874 1.19691C13.1296 1.063 13.0335 0.949153 12.9112 0.869653C12.7889 0.790153 12.6458 0.748541 12.4999 0.750039H1.49993C1.35465 0.750053 1.2125 0.79226 1.09076 0.87153C0.969018 0.950801 0.872917 1.06372 0.814135 1.19658C0.755354 1.32943 0.736423 1.4765 0.759641 1.61991C0.78286 1.76332 0.847229 1.8969 0.944928 2.00441L0.948053 2.00754L5.24993 6.59941V11.5C5.24973 11.6359 5.28644 11.7693 5.35614 11.8859C5.42584 12.0025 5.52591 12.098 5.64566 12.1622C5.76542 12.2264 5.90036 12.2568 6.03607 12.2503C6.17177 12.2437 6.30316 12.2004 6.41618 12.125L8.41618 10.7919C8.51912 10.7234 8.60352 10.6305 8.66186 10.5214C8.7202 10.4124 8.75067 10.2906 8.75055 10.1669V6.59941L13.0543 2.00441C13.1534 1.89779 13.2189 1.76434 13.2425 1.62072C13.2662 1.47711 13.247 1.3297 13.1874 1.19691ZM12.6874 1.66566L8.31868 6.32941C8.27491 6.37548 8.25033 6.43649 8.24993 6.50004V10.1657C8.24995 10.2068 8.23981 10.2474 8.22041 10.2837C8.201 10.32 8.17292 10.3509 8.13868 10.3738L6.13868 11.7069C6.10111 11.732 6.05745 11.7464 6.01234 11.7486C5.96723 11.7509 5.92235 11.7409 5.88248 11.7196C5.84261 11.6984 5.80923 11.6668 5.78589 11.6281C5.76255 11.5895 5.75012 11.5452 5.74993 11.5V6.50004C5.75003 6.43645 5.72589 6.37521 5.68243 6.32879L1.31555 1.66691C1.28342 1.63107 1.26232 1.58672 1.25478 1.53918C1.24725 1.49164 1.25359 1.44293 1.27306 1.39891C1.29253 1.35489 1.3243 1.31743 1.36454 1.29102C1.40478 1.26461 1.45179 1.25038 1.49993 1.25004H12.4999C12.5481 1.24999 12.5952 1.26386 12.6357 1.28997C12.6762 1.31609 12.7082 1.35333 12.728 1.39723C12.7479 1.44114 12.7546 1.48982 12.7473 1.53744C12.7401 1.58506 12.7193 1.62959 12.6874 1.66566Z" fill="#58595B"/>
</svg>
